<?xml version="1.0" encoding="utf-8"?>
<svg viewBox="0 0 200 200" xmlns="http://www.w3.org/2000/svg">
  <path d="M 106.813 73.354 L 86.501 73.355 C 86.501 84.421 95.594 93.398 106.813 93.398 C 124.952 93.398 139.996 108.476 139.996 126.656 L 140 126.656 C 140 144.835 124.956 159.913 106.816 159.913 L 0 159.913 L 62.001 200 L 62.001 189.977 C 62.001 184.441 66.476 179.956 72 179.956 L 106.816 179.956 L 106.816 179.962 C 136.14 179.962 159.999 156.048 159.999 126.656 C 159.999 97.266 136.14 73.354 106.813 73.354 Z" fill="#3f88c5" />
  <path d="M 93.184 126.646 L 113.498 126.645 C 113.498 115.579 104.402 106.603 93.184 106.603 C 75.042 106.603 60 91.524 60 73.344 C 60 55.165 75.044 40.09 93.184 40.09 L 200 40.09 L 137.999 0 L 137.999 10.023 C 137.999 15.559 133.524 20.044 128 20.044 L 93.184 20.044 L 93.184 20.039 C 63.86 20.039 40.001 43.951 40.001 73.344 L 39.997 73.344 C 39.997 102.735 63.855 126.646 93.184 126.646 Z" fill="#3f88c5" />
</svg>
